<svg xmlns="http://www.w3.org/2000/svg" viewBox="0 0 512 512"><!--!Font Awesome Free 6.7.1 by @fontawesome - https://fontawesome.com License - https://fontawesome.com/license/free Copyright 2024 Fonticons, Inc.--><path fill="#ffffff" d="M497.9 273.9c18.7-18.7 18.7-49.1 0-67.9l-160-160c-18.7-18.7-49.1-18.7-67.9 0l-256 256c-18.7 18.7-18.7 49.1 0 67.9l96 96A48 48 0 0 0 144 480h356c6.6 0 12-5.4 12-12v-40c0-6.6-5.4-12-12-12H355.9l142.1-142.1zm-302.6-62.6l137.4 137.4L265.4 416H150.6l-80-80 124.7-124.7z"/></svg>